<svg xmlns="http://www.w3.org/2000/svg" width="1200" height="630" viewBox="0 0 1200 630" fill="none">
  <!-- Background -->
  <rect width="1200" height="630" fill="#109cb0"/>

  <!-- Baby Icon (Centered and larger) -->
  <g transform="translate(600, 315) scale(8)">
    <path d="M9 12h.01" stroke="white" stroke-width="2" stroke-linecap="round" stroke-linejoin="round"/>
    <path d="M15 12h.01" stroke="white" stroke-width="2" stroke-linecap="round" stroke-linejoin="round"/>
    <path d="M10 16c.5.3 1.2.5 2 .5s1.5-.2 2-.5" stroke="white" stroke-width="2" stroke-linecap="round" stroke-linejoin="round"/>
    <path d="M19 6.3a9 9 0 0 1 1.8 3.9 2 2 0 0 1 0 3.6 9 9 0 0 1-17.6 0 2 2 0 0 1 0-3.6A9 9 0 0 1 12 3c2 0 3.5 1.1 3.5 2.5s-.9 2.5-2 2.5c-.8 0-1.5-.4-1.5-1" stroke="white" stroke-width="2" stroke-linecap="round" stroke-linejoin="round"/>
  </g>

  <!-- Title -->
  <text x="600" y="480" font-family="Arial, sans-serif" font-size="64" font-weight="bold" fill="white" text-anchor="middle">
    Flesvoeding Calculator
  </text>

  <!-- Subtitle -->
  <text x="600" y="540" font-family="Arial, sans-serif" font-size="36" fill="white" text-anchor="middle" opacity="0.95">
    Bereken de juiste hoeveelheid voor je baby
  </text>
</svg>
